<svg xmlns="http://www.w3.org/2000/svg" xmlns:xlink="http://www.w3.org/1999/xlink" viewBox="0 0 224.97 298.58"><defs><style>.cls-1{fill:#f9c8c0;}.cls-2{fill:url(#linear-gradient);}</style><linearGradient id="linear-gradient" x1="9.84" y1="236.54" x2="175.36" y2="94.47" gradientUnits="userSpaceOnUse"><stop offset="0" stop-color="#b13a21"/><stop offset="0.08" stop-color="#bc4127"/><stop offset="0.31" stop-color="#d95236"/><stop offset="0.55" stop-color="#ee5e40"/><stop offset="0.78" stop-color="#fa6647"/><stop offset="1" stop-color="#fe6849"/></linearGradient></defs><g id="Layer_2" data-name="Layer 2"><g id="Layer_4" data-name="Layer 4"><path class="cls-1" d="M181.73,184.5c97-79,.5-149.5.5-149.5s-54-40-113-17-56,104-56,104-1,99,2,138,32,38,32,38c31.5-.5,36.5-17.5,38.5-32.5s-7-33-2-49c10-13,20-2,20-2l31,49s27,54,64,28-13-79-21-90S181.73,184.5,181.73,184.5Zm-33-59c-8,7-48,15-50,15s-9,0-12-9,6-44,6-44c5-12,41-8,56,7.37S156.73,118.5,148.73,125.5Z"/><path class="cls-2" d="M168.66,173.63c97-79,.5-149.5.5-149.5s-54-40-113-17-56,104-56,104-1,99,2,138,32,38,32,38c31.5-.5,36.5-17.5,38.5-32.5s-7-33-2-49c10-13,20-2,20-2l31,49s27,54,64,28-13-79-21-90S168.66,173.63,168.66,173.63Zm-36-64c-8,7-48,15-50,15s-9,0-12-9,6-44,6-44c5-12,41-8,56,7.37S140.66,102.63,132.66,109.63Z"/></g></g></svg>